# xmcd CD database file
#
# Track frame offsets:
#	150
#	11300
#	19606
#	27809
#	35960
#	45371
#	55125
#	65131
#	76902
#	86885
#	98365
#	111724
#	122563
#	131465
#	143379
#	153181
#	163366
#	176681
#	185998
#	196451
#	207579
#	219374
#	235695
#	246348
#	259409
#	268407
#	278439
#	288888
#
# Disc length: 3994 seconds
#
# Revision: 0
# Processed by: cddbd v1.5.2PL0 Copyright (c) Steve Scherf et al.
# Submitted via: CDex 1.73
#
DISCID=970f981c
DTITLE=Gerry and The Pacemakers - Ferry Cross The Mersey - Special Edition
DYEAR=2009
DGENRE=Blues
TTITLE0=01 - It's Gonna Be All Right
TTITLE1=02 - Why Oh Why
TTITLE2=03 - Fall In Love
TTITLE3=04 - Think About Love
TTITLE4=05 - I Love You Too
TTITLE5=06 - All Quiet On The Mersey Front
TTITLE6=07 - This Thing Called Love
TTITLE7=08 - Baby You're So Good To Me
TTITLE8=09 - I'll Wait For You
TTITLE9=10 - She's The Only Girl For Me
TTITLE10=11 - Is It Love
TTITLE11=12 - Ferry Cross The Mersey
TTITLE12=13 - I Gotta Woman
TTITLE13=14 - Angel Of Love
TTITLE14=15 - That Feeling
TTITLE15=16 - Shake A Tail Feather
TTITLE16=17 - Que Sera Sera
TTITLE17=18 - I Really Do
TTITLE18=19 - Why Don't You Love Me
TTITLE19=20 - All I Want Is Your Love
TTITLE20=21 - I Love Her
TTITLE21=22 - Magic Potion
TTITLE22=23 - Guess Things Happen That Way
TTITLE23=24 - Sure To Fall (In Love With You)
TTITLE24=25 - I Gotta Woman (Stereo Version)
TTITLE25=26 - Shake A Tail Feather (Stereo Version)
TTITLE26=27 - Why Don't You Love Me (Stereo Version)
TTITLE27=28 - Ferry Cross The Mersey (Previously Unreleased)
EXTD=YEAR: 2009
EXTT0=
EXTT1=
EXTT2=
EXTT3=
EXTT4=
EXTT5=
EXTT6=
EXTT7=
EXTT8=
EXTT9=
EXTT10=
EXTT11=
EXTT12=
EXTT13=
EXTT14=
EXTT15=
EXTT16=
EXTT17=
EXTT18=
EXTT19=
EXTT20=
EXTT21=
EXTT22=
EXTT23=
EXTT24=
EXTT25=
EXTT26=
EXTT27=
PLAYORDER=
